<svg height="511pt" viewBox="1 0 511.99963 511" width="511pt" xmlns="http://www.w3.org/2000/svg"><path d="m100.789062 4.894531-96.402343 96.398438c-5.851563 5.855469-5.847657 15.351562 0 21.214843l385.601562 385.601563c5.863281 5.847656 15.359375 5.855469 21.21875.007813l96.402344-96.402344c2.933594-2.933594 4.390625-6.78125 4.390625-10.613282 0-3.847656-1.464844-7.6875-4.390625-10.613281l-385.601563-385.601562c-5.859374-5.847657-15.363281-5.847657-21.21875.007812zm0 0" fill="#ffe100"/><g fill="#ff7d00"><path d="m400.601562 401.101562c5.835938 5.847657 5.871094 15.34375-.007812 21.222657l-48.195312 48.195312-21.21875-21.222656 48.195312-48.195313c5.863281-5.847656 15.367188-5.847656 21.226562 0zm0 0"/><path d="m111.402344 111.902344c5.847656 5.863281 5.855468 15.359375-.007813 21.21875l-48.195312 48.199218-21.21875-21.21875 48.195312-48.199218c5.863281-5.847656 15.359375-5.855469 21.226563 0zm0 0"/><path d="m336.328125 368.972656c5.859375 5.859375 5.867187 15.355469 0 21.210938l-32.125 32.140625-21.21875-21.222657 32.128906-32.128906c5.863281-5.863281 15.351563-5.863281 21.214844 0zm0 0"/><path d="m143.527344 176.171875c5.859375 5.863281 5.859375 15.351563.007812 21.207031l-32.140625 32.136719-21.210937-21.210937 32.128906-32.132813c5.863281-5.863281 15.351562-5.863281 21.214844 0zm0 0"/></g><path d="m100.789062 4.886719-48.203124 48.199219 406.824218 406.824218 48.199219-48.199218c2.929687-2.929688 4.390625-6.769532 4.390625-10.609376 0-3.839843-1.460938-7.679687-4.390625-10.609374l-385.601563-385.605469c-5.859374-5.847657-15.359374-5.847657-21.21875 0zm0 0" fill="#ecb402"/><path d="m512 93.113281c0-51.152343-41.382812-92.613281-92.617188-92.613281-16.121093 0-31.265624 6.273438-42.65625 17.664062l-340.183593 340.183594c-1.921875 1.921875-3.285157 4.332032-3.945313 6.96875l-32.132812 128.527344c-1.382813 5.546875.433594 10.75 3.949218 14.242188 3.492188 3.511718 8.695313 5.332031 14.242188 3.949218l128.527344-32.132812c2.636718-.660156 5.046875-2.023438 6.96875-3.945313l340.183594-340.183593c11.390624-11.390626 17.664062-26.535157 17.664062-42.660157zm0 0" fill="#ffddd2"/><path d="m494.335938 135.773438c11.390624-11.390626 17.664062-26.535157 17.664062-42.660157 0-51.152343-41.382812-92.613281-92.617188-92.613281-16.121093 0-31.265624 6.273438-42.65625 17.664062l-338.515624 338.519532c2.617187-1.707032 5.722656-2.714844 8.921874-2.714844 61.425782 0 111.398438 49.972656 111.398438 111.398438 0 3.199218-1.007812 6.304687-2.710938 8.921874zm0 0" fill="#ff7d00"/><path d="m494.335938 135.769531-340.1875 340.1875c-1.917969 1.914063-4.328126 3.28125-6.964844 3.9375l-69 17.253907-59.53125 14.886718c-5.542969 1.382813-10.746094-.4375-14.242188-3.949218l480.480469-480.476563c16.765625 16.765625 27.109375 39.921875 27.109375 65.507813 0 16.121093-6.273438 31.257812-17.664062 42.652343zm0 0" fill="#eaa898"/><path d="m494.335938 135.769531-338.519532 338.519531c1.710938-2.617187 2.714844-5.726562 2.714844-8.925781 0-30.699219-12.496094-58.554687-32.667969-78.726562l359.027344-359.027344c16.765625 16.765625 27.109375 39.921875 27.109375 65.507813 0 16.121093-6.273438 31.257812-17.664062 42.652343zm0 0" fill="#f13800"/><path d="m15.347656 434.316406-14.882812 59.527344c-1.382813 5.546875.433594 10.75 3.949218 14.242188 3.492188 3.515624 8.695313 5.332031 14.242188 3.949218l59.527344-14.882812c-.183594-34.570313-28.265625-62.652344-62.835938-62.835938zm0 0" fill="#1827c6"/><path d="m78.183594 497.148438-59.53125 14.886718c-5.542969 1.382813-10.746094-.4375-14.242188-3.949218l55.246094-55.242188c11.363281 11.359375 18.433594 27.015625 18.527344 44.304688zm0 0" fill="#000e5c"/><path d="m462.277344 11.019531-358.476563 358.472657c16.125 9.566406 29.636719 23.082031 39.203125 39.203124l358.476563-358.472656c-8.753907-16.734375-22.460938-30.449218-39.203125-39.203125zm0 0" fill="#5258e3"/><path d="m143.003906 408.695312 358.476563-358.472656c-4.375-8.367187-9.992188-15.980468-16.609375-22.597656l-359.007813 359.011719c6.589844 6.589843 12.359375 14 17.140625 22.058593zm0 0" fill="#1827c6"/></svg>